PathFileType	4	(X/Y/Z)	C:\Users\dbl\Desktop\20210112\20210112\bx_n_0_1801.trc
DataRate	CameraRate	NumFrames	NumMarkers	Units	OrigDataRate	OrigDataStartFrame	OrigNumFrames
50.00	50.00	       7	43	mm	50.00	100	       397
Frame#	Time	Top.Head			R.Acromium			L.Acromium			Sternum			R.ASIS			L.ASIS			V.Sacral			R.Thigh.Upper			R.Thigh.Front			R.Thigh.Rear			R.Knee.Lat			R.Knee.Med			R.Shank.Upper			R.Shank.Front			R.Shank.Rear			R.Ankle.Lat			R.Midfoot.Lat			R.Toe.Lat			R.Toe.Tip			R.Toe.Med			R.Ankle.Med			R.Midfoot.Sup			R.Heel			L.Thigh.Upper			L.Thigh.Front			L.Thigh.Rear			L.Knee.Lat			L.Knee.Med			L.Shank.Upper			L.Shank.Front			L.Shank.Rear			L.Ankle.Lat			L.Midfoot.Lat			L.Toe.Lat			L.Toe.Tip			L.Toe.Med			L.Ankle.Med			L.Midfoot.Sup			L.Heel			origin1 front left			origin2 front right			origin 3 back right			origin 4 back leftt			
		X1	Y1	Z1	X2	Y2	Z2	X3	Y3	Z3	X4	Y4	Z4	X5	Y5	Z5	X6	Y6	Z6	X7	Y7	Z7	X8	Y8	Z8	X9	Y9	Z9	X10	Y10	Z10	X11	Y11	Z11	X12	Y12	Z12	X13	Y13	Z13	X14	Y14	Z14	X15	Y15	Z15	X16	Y16	Z16	X17	Y17	Z17	X18	Y18	Z18	X19	Y19	Z19	X20	Y20	Z20	X21	Y21	Z21	X22	Y22	Z22	X23	Y23	Z23	X24	Y24	Z24	X25	Y25	Z25	X26	Y26	Z26	X27	Y27	Z27	X28	Y28	Z28	X29	Y29	Z29	X30	Y30	Z30	X31	Y31	Z31	X32	Y32	Z32	X33	Y33	Z33	X34	Y34	Z34	X35	Y35	Z35	X36	Y36	Z36	X37	Y37	Z37	X38	Y38	Z38	X39	Y39	Z39	X40	Y40	Z40	X41	Y41	Z41	X42	Y42	Z42	X43	Y43	Z43	

100	1.980	-656.82489	112.51332	1851.84924	-695.94104	-74.48856	1542.43079	-710.13818	285.55457	1537.08069	-605.33759	99.17286	1353.68201	-623.92096	-10.91782	1058.14685	-618.70801	236.48889	1068.84778	-817.16504	99.59712	1064.72253	-689.09564	-74.97639	874.84967	-607.31091	-12.26920	809.04852	-704.09070	-61.67874	758.67480	-718.27563	-34.50354	616.57532	-694.16992	73.96288	574.17401	-721.64172	-31.99802	569.78424	-669.06250	14.01440	520.97223	-763.38965	-42.22750	488.68185	-759.65613	-18.58068	206.72621	-649.90369	-68.83030	160.99429	-608.59143	-75.91725	157.36055	-552.53857	-33.87444	164.43239	-599.50507	24.28987	168.50583	-718.78870	70.16489	216.35858	-673.70819	53.63042	158.74655	-792.87006	39.61181	174.67705	-696.39294	285.68243	875.93597	-600.85034	217.92374	800.90338	-700.28339	266.62100	746.56873	-733.25446	249.06142	641.64294	-685.04590	141.13589	580.20392	-724.61597	242.26196	577.19177	-669.47375	202.40025	537.14099	-762.94324	252.44998	502.52594	-764.57355	227.15944	206.59624	-654.49915	293.77509	155.25755	-618.99249	302.11682	157.96574	-554.16443	249.30714	166.47839	-588.98016	212.22852	175.00395	-711.37244	150.43352	216.58878	-674.25549	167.63147	158.16470	-794.32709	178.72098	184.68581	-528.14624	304.07477	146.67555	-517.66278	-72.84489	143.32478	-875.91699	-78.68146	141.39719	-882.47791	296.14087	144.76448	
101	2.000	-656.42188	112.06538	1851.92383	-695.26160	-74.70088	1542.54785	-709.85272	285.27881	1537.28430	-605.25507	99.11321	1353.61450	-624.22601	-10.95490	1058.04187	-619.37012	236.42047	1068.87598	-817.64478	99.34045	1065.02246	-689.63745	-75.08367	874.87402	-607.71552	-12.63198	809.13995	-704.55994	-61.89356	758.69519	-718.58667	-34.57744	616.56171	-694.10822	73.78584	574.23383	-722.03943	-31.99933	569.76251	-669.11597	13.75016	520.97498	-763.69415	-42.07719	488.70340	-759.73383	-18.74047	206.81207	-649.94409	-68.96800	160.86391	-608.56573	-76.00587	157.29269	-552.55402	-33.91224	164.43546	-599.52167	24.19236	168.63899	-718.73120	69.99574	216.45560	-673.71594	53.50883	159.03456	-792.85974	39.61450	174.66354	-697.22516	285.53003	876.01099	-601.52527	218.07933	801.14807	-700.78571	266.61462	746.65686	-733.44354	248.81839	641.55377	-684.61627	141.06342	580.34082	-724.52509	242.11551	577.29962	-669.26288	202.39450	537.12872	-762.91779	252.32507	502.71518	-764.56244	227.17830	206.59187	-654.55420	293.74954	155.18095	-619.00067	302.15497	157.93353	-554.15363	249.35114	166.50316	-589.01831	212.32425	175.03355	-711.25104	150.49818	216.63223	-674.23828	167.64285	158.17226	-794.30743	178.71991	184.70288	-528.16046	304.08978	146.61801	-517.67023	-72.80974	143.30809	-875.90399	-78.68874	141.37547	-882.50165	296.17661	144.76988	
102	2.020	-655.90015	111.65627	1852.01208	-694.47400	-74.92182	1542.70520	-709.45685	284.99323	1537.49841	-605.15399	99.02665	1353.53125	-624.63141	-10.97458	1057.94470	-620.20355	236.38271	1068.91516	-818.30231	99.04782	1065.38574	-690.32648	-75.24428	874.93250	-608.21350	-13.07126	809.23035	-705.16644	-62.08869	758.82098	-718.86584	-34.60859	616.51288	-693.80457	73.57502	574.18231	-722.35217	-31.97278	569.71765	-669.13751	13.38713	521.06830	-764.13818	-41.89650	488.78598	-759.80548	-18.95860	206.96021	-649.99304	-69.16426	160.67957	-608.55261	-76.14894	157.24161	-552.59045	-33.96544	164.45537	-599.60614	24.08457	168.79390	-718.64630	69.80141	216.63406	-673.75061	53.38203	159.45285	-792.83496	39.57037	174.68329	-698.19830	285.37851	876.09705	-602.24701	218.27298	801.48779	-701.29999	266.56485	746.69141	-733.46356	248.54147	641.38153	-683.95331	140.96854	580.44257	-724.26984	241.99934	577.43134	-668.86426	202.41296	537.10626	-762.75177	252.25060	502.95755	-764.53503	227.20244	206.61070	-654.59448	293.72525	155.13071	-619.00079	302.20770	157.91298	-554.15259	249.39365	166.51363	-589.03802	212.42401	175.05835	-711.13641	150.58839	216.62273	-674.20471	167.64491	158.19197	-794.26483	178.72842	184.72623	-528.16284	304.10052	146.55388	-517.70703	-72.79063	143.29019	-875.88812	-78.69656	141.36069	-882.50604	296.18430	144.75441	
103	2.040	-655.24738	111.29932	1852.14087	-693.56451	-75.15813	1542.87927	-708.96716	284.73102	1537.75806	-604.98956	98.90417	1353.45496	-625.17139	-10.95517	1057.89319	-621.26575	236.37227	1068.97339	-819.11646	98.71062	1065.81055	-691.17676	-75.41684	875.04199	-608.81018	-13.55298	809.35272	-705.90875	-62.25667	759.04309	-719.15228	-34.62492	616.46844	-693.39288	73.32332	574.11597	-722.58008	-31.98744	569.73016	-669.14581	12.89260	521.22321	-764.65491	-41.72966	488.93964	-759.91455	-19.21988	207.18633	-650.07202	-69.42693	160.45734	-608.54749	-76.33868	157.20845	-552.64874	-34.03529	164.46996	-599.76672	23.97409	169.00305	-718.50482	69.58270	216.87373	-673.82715	53.22862	159.91484	-792.80627	39.49612	174.72145	-699.32880	285.26550	876.18494	-602.96399	218.50481	801.91571	-701.83057	266.47507	746.66766	-733.31238	248.27092	641.15338	-683.06152	140.88101	580.47540	-723.82599	241.90556	577.55957	-668.26019	202.47462	537.09210	-762.42334	252.18280	503.18134	-764.49988	227.22630	206.65146	-654.59839	293.71231	155.10349	-618.99493	302.25757	157.90564	-554.16107	249.43161	166.51729	-589.03857	212.53384	175.07550	-710.99554	150.68468	216.59320	-674.16528	167.66443	158.21181	-794.20032	178.73141	184.74066	-528.15625	304.08850	146.51863	-517.73932	-72.83148	143.30359	-875.86713	-78.70959	141.34489	-882.49133	296.15881	144.71642	
104	2.060	-654.46893	110.98858	1852.31531	-692.50732	-75.42755	1543.04443	-708.41382	284.48279	1538.08411	-604.75647	98.75694	1353.38232	-625.88715	-10.87685	1057.88501	-622.57635	236.35336	1069.03406	-820.05713	98.37448	1066.28772	-692.21246	-75.53172	875.18518	-609.51160	-14.07593	809.54364	-706.77441	-62.38745	759.28284	-719.48810	-34.64317	616.45782	-693.06104	73.04328	574.18597	-722.76459	-32.08669	569.85382	-669.15540	12.30820	521.35553	-765.12946	-41.59025	489.15784	-760.07654	-19.46980	207.41135	-650.18335	-69.72308	160.22313	-608.53522	-76.54118	157.15439	-552.72589	-34.12331	164.47400	-599.97375	23.86803	169.25612	-718.31238	69.29931	217.08272	-673.93842	53.00891	160.34109	-792.78302	39.40646	174.74260	-700.61542	285.19092	876.27332	-603.70410	218.79031	802.40503	-702.38049	266.36249	746.59454	-733.03308	248.06752	640.91724	-681.98083	140.85469	580.46265	-723.21063	241.82614	577.62854	-667.46643	202.56400	537.07788	-761.89209	252.08075	503.32318	-764.45966	227.25203	206.68674	-654.57300	293.71692	155.08260	-618.98560	302.29425	157.89455	-554.16968	249.46216	166.52007	-589.02588	212.64423	175.09457	-710.84045	150.77753	216.56696	-674.12390	167.70027	158.23550	-794.13092	178.71231	184.74573	-528.15198	304.06683	146.51877	-517.74335	-72.90490	143.35776	-875.84625	-78.72654	141.32034	-882.47833	296.13257	144.68082	
105	2.080	-653.56812	110.71221	1852.50793	-691.29077	-75.73175	1543.17847	-707.80536	284.19623	1538.45801	-604.49475	98.63091	1353.28418	-626.77704	-10.74132	1057.89307	-624.12000	236.34482	1069.06848	-821.14386	98.07982	1066.82080	-693.43481	-75.56210	875.32233	-610.33063	-14.64838	809.81061	-707.75226	-62.44945	759.45050	-719.87476	-34.66542	616.47339	-692.82849	72.76258	574.42548	-722.94043	-32.24542	570.07111	-669.15967	11.73134	521.39709	-765.48926	-41.44947	489.39844	-760.29279	-19.68494	207.54532	-650.30237	-69.99799	159.99768	-608.50281	-76.70884	157.04395	-552.83026	-34.21983	164.49005	-600.17780	23.74567	169.53221	-718.13660	68.89865	217.19197	-674.06824	52.72612	160.70766	-792.76990	39.29445	174.72993	-702.04474	285.07388	876.34344	-604.50446	219.12094	802.93427	-702.89557	266.25806	746.49969	-732.69000	247.97209	640.71826	-680.76312	140.91647	580.45953	-722.44690	241.77365	577.59387	-666.50232	202.65154	537.04071	-761.12939	251.93155	503.35992	-764.41107	227.28810	206.68924	-654.54242	293.72919	155.06107	-618.97791	302.32584	157.85229	-554.17535	249.49796	166.52573	-589.00970	212.73300	175.12825	-710.68970	150.86525	216.54451	-674.09601	167.74173	158.26930	-794.07379	178.67560	184.75587	-528.15277	304.05859	146.53424	-517.72180	-72.95502	143.41835	-875.84778	-78.74534	141.31348	-882.48120	296.13974	144.67783	
106	2.100	-652.53290	110.45839	1852.67798	-689.91284	-76.03050	1543.25879	-707.12360	283.85373	1538.84973	-604.25232	98.59832	1353.12793	-627.80286	-10.57016	1057.88708	-625.85614	236.43105	1069.06641	-822.41962	97.82840	1067.41321	-694.81567	-75.57104	875.44916	-611.27515	-15.21963	810.14728	-708.84467	-62.38998	759.50543	-720.26428	-34.69462	616.49817	-692.53516	72.50827	574.71240	-723.11285	-32.39944	570.31848	-669.13507	11.22296	521.35107	-765.72827	-41.27860	489.60297	-760.55774	-19.89857	207.56075	-650.40735	-70.22324	159.78288	-608.45825	-76.81588	156.89348	-552.97375	-34.29441	164.55013	-600.33844	23.56747	169.83266	-718.04700	68.38156	217.20695	-674.21411	52.40453	161.01773	-792.77429	39.14695	174.69891	-703.57556	284.85077	876.37665	-605.33063	219.44910	803.49548	-703.29144	266.19351	746.41089	-732.30536	247.97513	640.55725	-679.43579	141.02066	580.49689	-721.51624	241.78133	577.46832	-665.38086	202.74013	536.97046	-760.15106	251.76199	503.32999	-764.35120	227.33797	206.65913	-654.52521	293.73050	155.03362	-618.98022	302.35721	157.77097	-554.18671	249.55762	166.52655	-588.99799	212.78954	175.17082	-710.52704	150.95653	216.52252	-674.10480	167.78844	158.31653	-794.02380	178.64693	184.77637	-528.15228	304.06860	146.55054	-517.69806	-72.96217	143.44543	-875.87799	-78.75925	141.34903	-882.49097	296.17130	144.70583	
